<svg version="1.1" id="Layer_1" xmlns="http://www.w3.org/2000/svg" xmlns:xlink="http://www.w3.org/1999/xlink" x="0px" y="0px"
	 width="100%" viewBox="0 0 800 800" enable-background="new 0 0 800 800" xml:space="preserve">
<path fill="#4338ca" opacity="1.000000" stroke="none" 
	d="
M336.000244,628.085449 
	C330.000397,628.069336 324.496582,628.181824 319.001373,628.012878 
	C304.525391,627.567810 296.968140,615.096497 303.994446,602.512207 
	C315.180206,582.478271 326.870880,562.726196 338.356750,542.859924 
	C346.597137,528.607117 354.945435,514.415649 363.062622,500.093109 
	C367.485809,492.288544 372.989990,487.573883 382.886810,487.889496 
	C402.200073,488.505432 421.547302,488.078308 440.880280,488.022675 
	C442.980713,488.016632 445.221375,488.534027 447.149017,487.148224 
	C447.989258,485.399109 446.832245,484.229248 445.973877,483.081482 
	C435.917664,469.634338 425.830200,456.210602 415.744019,442.785919 
	C407.661255,432.027802 399.550415,421.290741 391.488831,410.516815 
	C387.543091,405.243469 385.832764,405.190735 379.810547,407.723145 
	C369.666962,411.988647 358.957886,414.899384 348.047424,415.838654 
	C322.192352,418.064484 298.357056,411.087646 277.510773,396.081360 
	C267.797150,389.088898 259.393799,379.966492 252.774170,369.549591 
	C248.207672,362.363586 244.305832,354.844421 241.723480,346.821136 
	C239.707748,340.558441 238.742294,333.909485 237.793381,327.362152 
	C236.086166,315.582703 236.423218,303.600891 238.948212,292.144531 
	C242.649139,275.352814 249.124908,259.496796 261.603333,246.887466 
	C265.118408,243.335526 268.655426,239.804245 272.234283,236.316711 
	C282.804321,226.016312 293.675812,227.997818 302.485077,240.001144 
	C318.522400,261.853302 334.767914,283.548431 351.338287,305.005737 
	C366.385284,324.490417 380.763611,344.490753 395.761780,364.014038 
	C405.273041,376.394928 414.745972,388.829865 424.177002,401.252441 
	C432.984955,412.854340 441.552887,424.715881 450.246124,436.440918 
	C463.616913,454.474823 477.487488,472.137268 491.002838,490.065216 
	C504.109772,507.451569 516.976318,525.018982 530.059875,542.423157 
	C541.355347,557.448730 552.783081,572.375244 564.205750,587.304688 
	C567.335999,591.395935 570.722839,595.290222 573.877319,599.363708 
	C578.418945,605.228577 579.570312,611.728210 576.643372,618.611633 
	C573.444946,626.133728 566.961609,628.074402 559.497986,628.074585 
	C485.165375,628.076599 410.832794,628.081604 336.000244,628.085449 
M461.465332,519.969482 
	C439.134308,519.978760 416.802917,520.052490 394.472534,519.938721 
	C390.409180,519.918030 387.501923,521.030273 385.401154,524.700500 
	C374.827972,543.173035 364.039398,561.522583 353.529053,580.030396 
	C350.792877,584.848572 347.174164,589.274231 345.477997,595.364075 
	C406.992188,595.364075 467.975616,595.364075 528.937622,595.364075 
	C529.489868,592.902527 528.046631,591.591248 526.972839,590.179199 
	C511.359894,569.649109 495.311493,549.430664 480.337250,528.445557 
	C475.429993,521.568420 470.239685,518.957275 461.465332,519.969482 
M361.506439,381.055054 
	C363.742279,380.108673 367.356323,379.172241 364.848816,376.111481 
	C360.738098,371.093658 357.477478,365.527069 353.541901,360.417480 
	C342.087189,345.545563 330.696014,330.623840 319.381958,315.644592 
	C308.666595,301.458008 298.069183,287.182129 287.445984,272.926117 
	C285.114105,269.796844 283.302521,269.897583 280.987762,273.170898 
	C262.661163,299.087006 263.713654,334.094055 283.929657,358.432648 
	C303.299347,381.752319 331.319214,389.578827 361.506439,381.055054 
z"/>
<path fill="#4338ca" opacity="1.000000" stroke="none" 
	d="
M391.249268,272.656250 
	C385.416504,255.758514 386.457672,239.190796 391.652100,222.870575 
	C397.171295,205.529907 408.881500,192.505600 424.575836,184.342453 
	C449.331604,171.466217 474.577271,171.519012 499.322449,185.766434 
	C519.140869,197.177200 530.040833,215.090103 533.458679,236.628448 
	C538.224609,266.662628 527.018066,291.088562 502.355835,309.178070 
	C494.142365,315.202545 484.946381,319.310699 475.090118,320.876556 
	C453.245300,324.347076 432.738220,320.879547 415.200073,306.208282 
	C404.433655,297.201813 395.711792,286.673462 391.249268,272.656250 
M423.132172,229.666672 
	C419.505646,234.805557 420.649200,240.830307 419.815155,246.525604 
	C418.492645,255.556412 420.155914,263.783295 425.224182,271.197723 
	C438.346252,290.394165 455.083649,293.706848 475.051361,288.295990 
	C489.809631,284.296783 502.706146,268.024658 503.011108,248.119415 
	C503.296539,229.490173 486.400757,210.735077 471.273102,207.424835 
	C451.194427,203.031235 435.679596,210.627075 423.132172,229.666672 
z"/>
<path fill="#4338ca" opacity="1.000000" stroke="none" 
	d="
M159.225098,574.414246 
	C159.921051,553.968872 164.690491,534.585266 169.085159,515.248840 
	C172.159500,501.721893 177.197845,488.607178 181.839737,475.478271 
	C189.602341,453.523010 199.880188,432.718109 211.710541,412.676147 
	C214.070877,408.677460 216.423309,404.666107 218.979965,400.792999 
	C223.763474,393.546387 233.992203,391.264801 240.945419,395.754944 
	C248.214493,400.449066 250.456741,410.191101 245.847763,417.766266 
	C239.114838,428.832367 232.028275,439.750763 226.616348,451.497131 
	C222.547745,460.327911 218.728714,469.355957 214.930832,478.317352 
	C210.462128,488.861633 205.940399,499.420471 203.270630,510.414337 
	C198.858887,528.581421 192.475754,546.355530 191.637863,565.363220 
	C191.384979,571.099548 190.193344,576.859009 189.855148,582.686279 
	C189.344925,591.477600 181.821899,596.959839 171.796036,596.377136 
	C163.781250,595.911316 158.284317,589.456604 158.588882,580.796143 
	C158.658798,578.808350 158.919678,576.827271 159.225098,574.414246 
z"/>
<path fill="#4338ca" opacity="1.000000" stroke="none" 
	d="
M182.798584,416.783936 
	C172.805817,435.792419 164.388824,455.085449 157.128494,474.925049 
	C153.528854,484.761475 151.496964,495.037628 147.832489,504.828674 
	C145.848846,510.128693 142.687210,514.206909 136.920319,515.481445 
	C130.885300,516.815308 124.940979,515.909607 120.745171,511.355377 
	C116.460686,506.704773 116.903465,500.462189 118.308678,494.721588 
	C120.838463,484.386780 124.387505,474.340027 127.599571,464.196472 
	C133.217270,446.456055 140.606873,429.428864 149.001160,412.928131 
	C157.885513,395.464081 167.547348,378.353729 178.887985,362.287476 
	C183.400299,355.894897 187.717514,349.356079 192.433578,343.118195 
	C196.976761,337.108948 203.172729,334.879089 210.571686,336.785461 
	C216.565308,338.329742 221.011856,343.650604 221.776581,350.096619 
	C222.241150,354.012573 221.608414,357.791992 219.100174,360.961639 
	C205.340988,378.349182 193.679276,397.093506 182.798584,416.783936 
z"/>
<path fill="#4338ca" opacity="1.000000" stroke="none" 
	d="
M237.368561,539.835388 
	C224.135941,538.039612 221.854660,526.210693 225.417862,515.391785 
	C232.727921,493.196564 241.032608,471.311737 252.716995,450.922180 
	C257.583435,442.430084 262.322662,433.851868 267.543396,425.580231 
	C271.514069,419.289185 283.585327,417.493744 290.084839,421.723999 
	C296.680267,426.016663 298.457275,436.121765 294.016876,443.590057 
	C288.331512,453.152191 282.075256,462.444458 277.224091,472.416870 
	C269.687164,487.910461 262.314087,503.541412 257.506470,520.203125 
	C256.264862,524.506104 254.986572,528.876404 253.033493,532.878235 
	C249.976776,539.141479 244.043030,540.067261 237.368561,539.835388 
z"/>
</svg>